# xmcd
#
# Track frame offsets:
#	150
#	17175
#	33427
#	52781
#	68411
#	84308
#	100367
#	116478
#	133753
#	150114
#	164206
#
# Disc length: 2429 seconds
# Revision: 0
# Processed by: cddbd v1.5.2PL0 Copyright (c) Steve Scherf et al.
# Submitted via: dBpowerAMP V12.0
#
DISCID=81097b0b
DTITLE=Barbara Carr - Keep The Fire Burning
DYEAR=2012
DGENRE=Soul Female
TTITLE0=Hanging On By A Thread
TTITLE1=Come On Home
TTITLE2=We Have The Key
TTITLE3=I Got The Blues
TTITLE4=Keep The Fire Burning
TTITLE5=Moment of Weakness
TTITLE6=Back Together Again
TTITLE7=Hold On To What You Got
TTITLE8=You Give Me The Blues
TTITLE9=What You Gonna Do
TTITLE10=Sweet Talking Snake
EXTD=
EXTT0=
EXTT1=
EXTT2=
EXTT3=
EXTT4=
EXTT5=
EXTT6=
EXTT7=
EXTT8=
EXTT9=
EXTT10=
PLAYORDER=
